<svg width="635.8" height="113.2" viewBox="0 0 635.8 113.2" xmlns="http://www.w3.org/2000/svg"><g id="svgGroup" stroke-linecap="round" fill-rule="evenodd" font-size="9pt" stroke="#000" stroke-width="0.25mm" fill="#000" style="stroke:#000;stroke-width:0.25mm;fill:#000"><path d="M 82.7 87.5 L 81.5 91.2 Q 79.509 91.353 78.281 91.389 A 23.51 23.51 0 0 1 77.6 91.4 Q 71.6 91.4 67.85 86.35 Q 64.1 81.3 64.1 73.2 Q 64.1 69.179 65.615 59.267 A 400.649 400.649 0 0 1 66.35 54.65 Q 68.6 41 71.6 29.7 Q 72.114 27.558 72.188 26.664 A 3.259 3.259 0 0 0 72.2 26.4 A 1.33 1.33 0 0 0 72.169 26.098 Q 72.073 25.686 71.678 25.615 A 1.002 1.002 0 0 0 71.5 25.6 A 0.631 0.631 0 0 0 71.14 25.851 Q 70.311 26.751 68.162 30.875 A 175.099 175.099 0 0 0 67.05 33.05 A 755.637 755.637 0 0 0 64.034 39.116 Q 61.35 44.569 58.1 51.35 A 34878.622 34878.622 0 0 1 56.306 55.092 Q 53.409 61.136 52.472 63.083 A 388.438 388.438 0 0 1 52.15 63.75 Q 51.4 65.3 50.95 66.25 A 22.187 22.187 0 0 1 50.679 66.798 Q 50.173 67.793 49.15 69.65 A 100.449 100.449 0 0 1 47.857 71.928 Q 47.209 73.035 46.6 74 A 35.535 35.535 0 0 1 45.412 75.699 Q 42.944 79 41.4 79 Q 40.1 79 38.55 78.3 Q 37 77.6 36.5 76.8 Q 35.414 75.122 35.4 66.432 A 141.67 141.67 0 0 1 35.4 66.2 A 207.917 207.917 0 0 1 37.305 37.636 A 185.085 185.085 0 0 1 38.4 30.7 A 1020.471 1020.471 0 0 0 38.634 29.383 Q 39.4 25.063 39.4 24.8 Q 39.4 23.89 38.738 23.808 A 1.121 1.121 0 0 0 38.6 23.8 A 1.148 1.148 0 0 0 37.84 24.245 Q 36.469 25.69 34.206 31.831 A 127.652 127.652 0 0 0 33.5 33.8 L 30.6 42.1 A 217.338 217.338 0 0 1 26.585 52.631 Q 22.171 63.314 17.686 70.245 A 65.053 65.053 0 0 1 17.65 70.3 A 49.003 49.003 0 0 1 12.235 77.275 Q 8.615 81.115 4.517 83.485 A 29.007 29.007 0 0 1 2.6 84.5 L 0 79 Q 8.26 72.869 13.293 66.52 A 46.487 46.487 0 0 0 14.95 64.3 A 53.112 53.112 0 0 0 17.978 59.354 Q 21.014 53.802 24.338 45.465 A 241.091 241.091 0 0 0 26.4 40.1 L 29.8 31 Q 32.564 23.497 34.767 19.393 A 29.048 29.048 0 0 1 35.9 17.45 A 13.356 13.356 0 0 1 37.302 15.607 Q 39.338 13.4 41.7 13.4 A 6.213 6.213 0 0 1 43.988 13.788 Q 47 14.975 47 19.8 A 9.165 9.165 0 0 1 46.97 20.226 Q 46.763 22.769 45.1 40.05 A 1031.899 1031.899 0 0 0 44.36 48.047 Q 43.2 61.178 43.2 66.1 Q 43.2 67.503 43.565 67.873 A 0.423 0.423 0 0 0 43.8 68 Q 44.293 68 44.883 67.028 A 6.223 6.223 0 0 0 44.9 67 Q 53 53.5 60.4 37.6 A 3462.397 3462.397 0 0 0 60.931 36.419 Q 61.753 34.591 63.16 31.457 A 28745.868 28745.868 0 0 0 63.5 30.7 A 138.309 138.309 0 0 1 65.671 26.083 A 100.557 100.557 0 0 1 67.8 22 A 53.628 53.628 0 0 1 68.671 20.479 Q 70.141 18.014 71 17.35 A 3.355 3.355 0 0 1 71.957 16.849 Q 72.861 16.535 74.199 16.503 A 12.864 12.864 0 0 1 74.5 16.5 A 5.66 5.66 0 0 1 78.595 18.196 A 7.165 7.165 0 0 1 78.65 18.25 A 5.95 5.95 0 0 1 80.015 20.293 A 5.728 5.728 0 0 1 80.4 22.4 A 19.915 19.915 0 0 1 80.266 24.634 Q 80.094 26.156 79.7 27.9 A 1593.566 1593.566 0 0 0 77.049 41.11 Q 71.9 67.397 71.9 73.45 Q 71.9 79.294 73.377 82.246 A 6.641 6.641 0 0 0 74.3 83.65 A 8.771 8.771 0 0 0 76.599 85.476 Q 78.944 86.811 82.7 87.5 Z M 115.7 74.1 L 123.8 70.9 L 124.1 73.5 A 1.602 1.602 0 0 1 123.867 73.622 Q 122.588 74.213 114.8 77.1 Q 113.6 83.7 111.75 90.15 A 85.345 85.345 0 0 1 110.623 93.793 Q 109.517 97.082 108.412 99.265 A 21.655 21.655 0 0 1 108.05 99.95 A 54.091 54.091 0 0 1 104.615 105.361 A 61.05 61.05 0 0 1 103.7 106.6 Q 98.7 113.2 90.2 113.2 A 11 11 0 0 1 87.289 112.834 A 8.133 8.133 0 0 1 83.5 110.6 Q 81 108 81 103.5 A 20.739 20.739 0 0 1 87.319 88.831 Q 93.564 82.314 105.982 77.244 A 107.101 107.101 0 0 1 110 75.7 L 115.4 56.7 A 93.688 93.688 0 0 1 111.206 62.531 Q 106.835 68.105 102.95 70.849 A 17.25 17.25 0 0 1 99.9 72.6 Q 96.5 74.2 92.75 74.2 A 9.475 9.475 0 0 1 90.05 73.834 A 7.278 7.278 0 0 1 86.75 71.8 Q 84.86 69.784 84.558 66.217 A 16.773 16.773 0 0 1 84.5 64.8 A 18.967 18.967 0 0 1 84.778 61.747 Q 85.435 57.751 87.65 51.95 Q 90.468 44.57 93.886 39.311 A 45.542 45.542 0 0 1 94.7 38.1 L 99.6 40.2 A 1.022 1.022 0 0 0 99.491 40.348 Q 99.06 41.014 97.393 44.318 A 388.622 388.622 0 0 0 96.8 45.5 Q 92.4 54.6 92.4 59 A 17.798 17.798 0 0 0 92.5 60.961 Q 92.812 63.763 94.1 64.9 A 5.422 5.422 0 0 0 96.007 65.964 Q 96.823 66.235 97.819 66.337 A 12.513 12.513 0 0 0 99.1 66.4 A 6.826 6.826 0 0 0 101.666 65.856 Q 103.713 65.026 106.033 62.93 A 27.307 27.307 0 0 0 106.55 62.45 A 44.202 44.202 0 0 0 108.889 60.014 Q 112.677 55.799 118.808 47.594 A 423.143 423.143 0 0 0 119.4 46.8 L 123 48.9 Q 122.2 52.2 119.45 60.85 Q 116.7 69.5 115.7 74.1 Z M 627.4 74.1 L 635.5 70.9 L 635.8 73.5 A 1.602 1.602 0 0 1 635.567 73.622 Q 634.288 74.213 626.5 77.1 Q 625.3 83.7 623.45 90.15 A 85.345 85.345 0 0 1 622.323 93.793 Q 621.217 97.082 620.112 99.265 A 21.655 21.655 0 0 1 619.75 99.95 A 54.091 54.091 0 0 1 616.315 105.361 A 61.05 61.05 0 0 1 615.4 106.6 Q 610.4 113.2 601.9 113.2 A 11 11 0 0 1 598.989 112.834 A 8.133 8.133 0 0 1 595.2 110.6 Q 592.7 108 592.7 103.5 A 20.739 20.739 0 0 1 599.019 88.831 Q 605.264 82.314 617.682 77.244 A 107.101 107.101 0 0 1 621.7 75.7 L 627.1 56.7 A 93.688 93.688 0 0 1 622.906 62.531 Q 618.535 68.105 614.65 70.849 A 17.25 17.25 0 0 1 611.6 72.6 Q 608.2 74.2 604.45 74.2 A 9.475 9.475 0 0 1 601.75 73.834 A 7.278 7.278 0 0 1 598.45 71.8 Q 596.56 69.784 596.258 66.217 A 16.773 16.773 0 0 1 596.2 64.8 A 18.967 18.967 0 0 1 596.478 61.747 Q 597.135 57.751 599.35 51.95 Q 602.168 44.57 605.586 39.311 A 45.542 45.542 0 0 1 606.4 38.1 L 611.3 40.2 A 1.022 1.022 0 0 0 611.191 40.348 Q 610.76 41.014 609.093 44.318 A 388.622 388.622 0 0 0 608.5 45.5 Q 604.1 54.6 604.1 59 A 17.798 17.798 0 0 0 604.2 60.961 Q 604.512 63.763 605.8 64.9 A 5.422 5.422 0 0 0 607.707 65.964 Q 608.523 66.235 609.519 66.337 A 12.513 12.513 0 0 0 610.8 66.4 A 6.826 6.826 0 0 0 613.366 65.856 Q 615.413 65.026 617.733 62.93 A 27.307 27.307 0 0 0 618.25 62.45 A 44.202 44.202 0 0 0 620.589 60.014 Q 624.377 55.799 630.508 47.594 A 423.143 423.143 0 0 0 631.1 46.8 L 634.7 48.9 Q 633.9 52.2 631.15 60.85 Q 628.4 69.5 627.4 74.1 Z M 199.4 69.9 L 201.7 71.8 A 18.116 18.116 0 0 1 198.986 75.339 A 11.222 11.222 0 0 1 190.8 78.8 A 8.535 8.535 0 0 1 188.54 78.527 Q 185.954 77.816 185.257 75.248 A 8.212 8.212 0 0 1 185 73.1 Q 185 69.8 187.85 62.55 A 116.643 116.643 0 0 0 188.819 60.005 Q 190.305 55.948 190.617 53.93 A 6.2 6.2 0 0 0 190.7 53 A 3.196 3.196 0 0 0 190.456 51.702 Q 189.75 50.1 187 50.1 A 5.094 5.094 0 0 0 184.778 50.694 Q 181.874 52.121 177.829 56.972 A 65.942 65.942 0 0 0 176.95 58.05 A 71.313 71.313 0 0 0 168.881 70.795 A 84.918 84.918 0 0 0 166.3 76.5 L 160.4 74.4 A 152.813 152.813 0 0 1 165.128 56.852 Q 171.137 38.515 182.84 14.177 A 626.288 626.288 0 0 1 187.6 4.5 L 192.5 6.1 A 663.428 663.428 0 0 0 187.344 16.631 Q 180.2 31.575 176.6 41.4 A 503.689 503.689 0 0 0 174.256 47.906 Q 171.436 55.915 169.655 61.97 A 164.254 164.254 0 0 0 169.1 63.9 Q 176.8 51.2 182.35 46.3 Q 187.9 41.4 192 41.4 Q 199.267 41.4 199.398 46.511 A 7.391 7.391 0 0 1 199.4 46.7 A 10.083 10.083 0 0 1 199.183 48.603 Q 198.57 51.724 196.224 57.279 A 121.038 121.038 0 0 1 195.7 58.5 A 124.467 124.467 0 0 0 194.443 61.487 Q 192.513 66.256 192.108 68.677 A 6.919 6.919 0 0 0 192 69.8 Q 192 72.6 194.7 72.6 Q 196.1 72.6 199.4 69.9 Z M 417.6 83.7 L 418.1 88.4 A 36.951 36.951 0 0 1 415.941 88.724 Q 414.447 88.9 413.2 88.9 Q 408.5 88.9 404.2 82.65 A 46.915 46.915 0 0 1 399.45 73.76 A 58.701 58.701 0 0 1 397.45 68 A 84.538 84.538 0 0 1 395.031 57.233 A 71.612 71.612 0 0 1 394.4 51.8 A 152.226 152.226 0 0 1 391.631 58.547 Q 388.897 64.748 386.337 68.673 A 33.434 33.434 0 0 1 384.95 70.65 A 22.569 22.569 0 0 1 382.568 73.345 Q 379.252 76.5 375.8 76.5 Q 373.505 76.5 372.125 74.718 A 5.754 5.754 0 0 1 372 74.55 Q 370.771 72.838 370.621 70.163 A 13.623 13.623 0 0 1 370.6 69.4 Q 370.6 62.699 376.217 52.718 A 86.122 86.122 0 0 1 377.45 50.6 Q 384.3 39.2 393.5 31.9 A 5.013 5.013 0 0 0 393.571 31.655 Q 393.894 30.463 395.25 24.6 Q 396.8 17.9 397.1 17.2 L 402.9 16.7 Q 402.9 18.089 402.299 21.947 A 175.954 175.954 0 0 1 402 23.8 A 86.886 86.886 0 0 1 408.45 19.294 Q 417.675 13.5 424.2 13.5 A 12.072 12.072 0 0 1 426.927 13.791 Q 429.04 14.28 430.53 15.595 A 7.685 7.685 0 0 1 430.7 15.75 A 7.456 7.456 0 0 1 432.985 20.212 A 10.586 10.586 0 0 1 433.1 21.8 Q 433.1 31.3 423.5 40.95 Q 413.9 50.6 403 52.3 A 90.941 90.941 0 0 0 403.837 60.747 Q 404.472 64.988 405.503 68.507 A 36.233 36.233 0 0 0 408.05 75 Q 411.623 81.894 415.938 83.345 A 7.367 7.367 0 0 0 417.6 83.7 Z M 306 16 L 308.9 20.3 Q 298.6 27.1 286.7 41.95 A 137.626 137.626 0 0 0 273.057 62.334 A 118.509 118.509 0 0 0 268.1 72.6 Q 266.7 75.9 265.65 77 A 3.398 3.398 0 0 1 264.036 77.932 Q 263.49 78.079 262.838 78.097 A 6.684 6.684 0 0 1 262.65 78.1 A 5.176 5.176 0 0 1 259.199 76.792 A 6.555 6.555 0 0 1 259.15 76.75 A 4.257 4.257 0 0 1 257.876 74.722 Q 257.669 74.038 257.617 73.215 A 9.006 9.006 0 0 1 257.6 72.65 A 35.761 35.761 0 0 1 257.641 71.086 Q 257.744 68.787 258.105 64.77 A 382.039 382.039 0 0 1 258.35 62.15 Q 259.1 54.4 259.1 51.2 A 165.438 165.438 0 0 0 258.523 36.912 Q 257.927 30.058 256.716 24.274 A 69.127 69.127 0 0 0 254.1 14.9 L 261.4 12.9 A 30.287 30.287 0 0 1 264.123 19.614 Q 267.1 29.955 267.1 48.6 A 402.278 402.278 0 0 1 267.081 52.588 Q 267.036 57.144 266.881 60.462 A 115.201 115.201 0 0 1 266.8 62 A 144.425 144.425 0 0 1 278.651 41.766 Q 290.775 24.663 306 16 Z M 503.5 67.1 L 505.8 68.8 A 11.552 11.552 0 0 1 504.125 71.368 Q 503.229 72.427 502.012 73.445 A 23.692 23.692 0 0 1 500.65 74.5 A 19.014 19.014 0 0 1 498.37 75.924 Q 495.931 77.2 493.8 77.2 Q 489.094 77.2 488.142 73.256 A 9.634 9.634 0 0 1 487.9 71 A 14.085 14.085 0 0 1 488.129 68.567 Q 488.486 66.538 489.4 64.1 L 485.7 67.9 Q 480.735 72.957 476.996 74.97 A 15.896 15.896 0 0 1 476.35 75.3 A 19.914 19.914 0 0 1 472.256 76.768 A 16.012 16.012 0 0 1 468.6 77.2 Q 464.8 77.2 462.85 75.05 A 7.138 7.138 0 0 1 461.273 72.109 Q 460.9 70.763 460.9 69.1 Q 460.9 62.1 466.3 55.25 A 40.456 40.456 0 0 1 478.031 45.224 A 47.555 47.555 0 0 1 480.1 44.1 Q 488.5 39.8 496.9 39.7 L 497.1 43 L 492.9 43.9 Q 483.8 45.9 476.85 51.9 Q 472.78 55.414 471.093 58.91 A 11.287 11.287 0 0 0 469.9 63.85 A 10.83 10.83 0 0 0 470.098 66.022 Q 470.875 69.8 474.7 69.8 Q 478.472 69.8 483.719 65.374 A 45.684 45.684 0 0 0 485.8 63.5 Q 492.4 57.2 496.8 48.7 L 501 51.2 A 204.847 204.847 0 0 0 498.893 55.568 Q 495.863 62.059 495.076 65.259 A 8.047 8.047 0 0 0 494.8 67.1 A 3.397 3.397 0 0 0 495.045 68.406 A 3.184 3.184 0 0 0 495.75 69.45 A 4.283 4.283 0 0 0 496.329 69.941 Q 496.989 70.4 497.65 70.4 A 14.274 14.274 0 0 0 498.035 70.395 Q 498.581 70.38 498.83 70.32 A 0.879 0.879 0 0 0 498.9 70.3 A 4.556 4.556 0 0 0 499.462 70.069 A 5.003 5.003 0 0 0 499.5 70.05 Q 499.793 69.903 500.23 69.613 A 13.889 13.889 0 0 0 500.25 69.6 Q 500.7 69.3 501.05 69 Q 501.387 68.711 502.141 68.144 A 64.698 64.698 0 0 1 502.2 68.1 Q 503 67.5 503.5 67.1 Z M 151.2 66 L 153.4 68.5 A 20.607 20.607 0 0 1 150.061 72.532 A 17.755 17.755 0 0 1 147.35 74.6 A 15.489 15.489 0 0 1 144.011 76.179 A 12.194 12.194 0 0 1 140.2 76.8 A 10.219 10.219 0 0 1 137.806 76.535 A 6.962 6.962 0 0 1 134.5 74.75 A 6.761 6.761 0 0 1 132.626 71.296 A 10.085 10.085 0 0 1 132.4 69.1 Q 132.4 62.015 136.882 50.377 A 138.872 138.872 0 0 1 138.7 45.9 Q 133.6 46.7 128.5 48.3 L 127.8 44.4 L 127.7 44.3 A 39.079 39.079 0 0 1 131.79 42.866 Q 133.975 42.223 136.553 41.681 A 90.241 90.241 0 0 1 140.8 40.9 A 44.321 44.321 0 0 0 141.17 40.186 Q 142.049 38.461 144.048 34.328 A 1129.95 1129.95 0 0 0 144.4 33.6 Q 150 22.1 152.4 18.7 L 156.7 20.4 Q 155.779 22.426 153.586 26.954 A 999.706 999.706 0 0 1 153.2 27.75 A 1568.814 1568.814 0 0 0 150.724 32.875 Q 149.247 35.947 147.6 39.4 Q 151.309 39.153 153.727 39.109 A 54.279 54.279 0 0 1 154.7 39.1 A 13.624 13.624 0 0 1 156.173 39.174 Q 157.72 39.343 158.692 39.895 A 4.128 4.128 0 0 1 158.7 39.9 L 158.7 44.2 Q 157.3 43.9 154.65 43.9 A 26.356 26.356 0 0 0 153.094 43.955 Q 150.453 44.114 145.663 44.739 A 262.226 262.226 0 0 0 145.2 44.8 A 134.957 134.957 0 0 0 142.688 50.771 Q 139.3 59.453 139.3 64 A 5.98 5.98 0 0 0 139.578 65.859 A 4.975 4.975 0 0 0 140.75 67.8 A 4.824 4.824 0 0 0 143.486 69.206 A 6.914 6.914 0 0 0 144.65 69.3 A 5.098 5.098 0 0 0 146.25 69.009 Q 147.752 68.509 149.684 67.147 A 29.849 29.849 0 0 0 151.2 66 Z M 584.8 66 L 587 68.5 A 20.607 20.607 0 0 1 583.661 72.532 A 17.755 17.755 0 0 1 580.95 74.6 A 15.489 15.489 0 0 1 577.611 76.179 A 12.194 12.194 0 0 1 573.8 76.8 A 10.219 10.219 0 0 1 571.406 76.535 A 6.962 6.962 0 0 1 568.1 74.75 A 6.761 6.761 0 0 1 566.226 71.296 A 10.085 10.085 0 0 1 566 69.1 Q 566 62.015 570.482 50.377 A 138.872 138.872 0 0 1 572.3 45.9 Q 567.2 46.7 562.1 48.3 L 561.4 44.4 L 561.3 44.3 A 39.079 39.079 0 0 1 565.39 42.866 Q 567.575 42.223 570.153 41.681 A 90.241 90.241 0 0 1 574.4 40.9 A 44.321 44.321 0 0 0 574.77 40.186 Q 575.649 38.461 577.648 34.328 A 1129.95 1129.95 0 0 0 578 33.6 Q 583.6 22.1 586 18.7 L 590.3 20.4 Q 589.379 22.426 587.186 26.954 A 999.706 999.706 0 0 1 586.8 27.75 A 1568.814 1568.814 0 0 0 584.324 32.875 Q 582.847 35.947 581.2 39.4 Q 584.909 39.153 587.327 39.109 A 54.279 54.279 0 0 1 588.3 39.1 A 13.624 13.624 0 0 1 589.773 39.174 Q 591.32 39.343 592.292 39.895 A 4.128 4.128 0 0 1 592.3 39.9 L 592.3 44.2 Q 590.9 43.9 588.25 43.9 A 26.356 26.356 0 0 0 586.694 43.955 Q 584.053 44.114 579.263 44.739 A 262.226 262.226 0 0 0 578.8 44.8 A 134.957 134.957 0 0 0 576.288 50.771 Q 572.9 59.453 572.9 64 A 5.98 5.98 0 0 0 573.178 65.859 A 4.975 4.975 0 0 0 574.35 67.8 A 4.824 4.824 0 0 0 577.086 69.206 A 6.914 6.914 0 0 0 578.25 69.3 A 5.098 5.098 0 0 0 579.85 69.009 Q 581.352 68.509 583.284 67.147 A 29.849 29.849 0 0 0 584.8 66 Z M 523.1 67.6 L 525.2 69.3 A 81.163 81.163 0 0 1 523.363 72.048 Q 521.529 74.665 520.02 76.271 A 18.333 18.333 0 0 1 519.35 76.95 A 9.072 9.072 0 0 1 517.227 78.493 A 7.175 7.175 0 0 1 513.9 79.3 A 5.902 5.902 0 0 1 509.429 77.396 A 7.49 7.49 0 0 1 509 76.9 A 8.67 8.67 0 0 1 507.267 72.932 A 11.851 11.851 0 0 1 507.1 70.9 A 21.142 21.142 0 0 1 507.54 67.065 Q 508.739 60.789 513.205 48.779 A 387.597 387.597 0 0 1 516.3 40.75 A 424.622 424.622 0 0 1 525.477 19.306 Q 530.199 9.1 535.046 0.28 A 260.316 260.316 0 0 1 535.2 0 L 539.6 2.4 Q 529.8 21.4 521.9 40.15 A 204.876 204.876 0 0 0 518.537 48.613 Q 514 60.886 514 67.1 Q 514 71.8 517.5 71.8 A 4.317 4.317 0 0 0 519.731 71.133 Q 521.149 70.286 522.567 68.361 A 19.795 19.795 0 0 0 523.1 67.6 Z M 320.2 38.1 L 319.3 42 Q 318.158 41.866 316.564 41.822 A 60.357 60.357 0 0 0 314.9 41.8 Q 304.9 41.8 304.9 48.4 Q 304.9 49.717 308.484 55.813 A 161.987 161.987 0 0 0 308.95 56.6 A 85.443 85.443 0 0 1 310.326 58.992 Q 312.404 62.752 312.867 64.719 A 4.364 4.364 0 0 1 313 65.7 A 12.813 12.813 0 0 1 312.497 69.384 A 9.714 9.714 0 0 1 309.35 74.15 A 12.548 12.548 0 0 1 304.321 76.655 Q 302.447 77.132 300.238 77.191 A 23.638 23.638 0 0 1 299.6 77.2 A 13.481 13.481 0 0 1 289.277 72.448 Q 287.554 70.552 286.1 67.9 L 289.9 65.2 Q 291.255 66.265 292.797 67.751 A 53.321 53.321 0 0 1 292.9 67.85 Q 294.106 69.019 294.858 69.647 A 10.802 10.802 0 0 0 295.3 70 A 6.983 6.983 0 0 0 297.102 71.191 A 5.81 5.81 0 0 0 299.5 71.7 Q 301.8 71.7 303.5 70.05 A 5.46 5.46 0 0 0 305.198 66.102 A 6.955 6.955 0 0 0 305.2 65.95 Q 305.2 63.5 300.85 56.8 Q 296.932 50.765 296.543 47.976 A 4.181 4.181 0 0 1 296.5 47.4 Q 296.5 42.845 300.086 40.278 A 11.005 11.005 0 0 1 300.65 39.9 A 15.699 15.699 0 0 1 305.07 38.045 Q 307.938 37.3 311.55 37.3 A 88.977 88.977 0 0 1 314.271 37.338 Q 317.967 37.452 319.616 37.903 A 4.743 4.743 0 0 1 320.2 38.1 Z M 454.1 65.4 L 456.4 67.2 A 22.525 22.525 0 0 1 451.05 72.427 A 28.655 28.655 0 0 1 447.9 74.35 A 26.403 26.403 0 0 1 442.986 76.372 A 19.863 19.863 0 0 1 437.4 77.2 A 14.071 14.071 0 0 1 433.788 76.76 A 10.253 10.253 0 0 1 429.2 74.2 A 10.03 10.03 0 0 1 426.209 68.071 A 13.951 13.951 0 0 1 426.1 66.3 Q 426.1 57.1 435.85 48.2 A 41.631 41.631 0 0 1 442.429 43.225 Q 448.959 39.3 455.6 39.3 A 12.291 12.291 0 0 1 458.009 39.515 Q 461.779 40.272 462.158 43.701 A 7.282 7.282 0 0 1 462.2 44.5 A 9.575 9.575 0 0 1 460.963 49.074 Q 459.347 52.073 455.622 55.102 A 36.171 36.171 0 0 1 455.25 55.4 Q 448.3 60.9 435.7 65.4 A 7.998 7.998 0 0 0 437.121 67.779 A 7.31 7.31 0 0 0 438.5 69 A 7.846 7.846 0 0 0 440.296 69.93 A 6.232 6.232 0 0 0 442.4 70.3 A 10.611 10.611 0 0 0 445.226 69.868 Q 447.965 69.105 451.557 66.993 A 56.342 56.342 0 0 0 454.1 65.4 Z M 553.7 64.3 L 555.7 66 Q 553.3 70.6 549.35 73.85 A 20.629 20.629 0 0 1 547.187 75.421 Q 544.547 77.07 542.281 77.099 A 6.33 6.33 0 0 1 542.2 77.1 A 5.601 5.601 0 0 1 539.524 76.5 Q 536.6 74.937 536.6 69.3 A 31.542 31.542 0 0 1 537.381 62.661 Q 539.1 54.725 544.6 44 Q 546.138 41.096 546.581 40.234 A 24.08 24.08 0 0 0 546.7 40 L 551 42.6 A 40.031 40.031 0 0 0 549.891 44.781 Q 548.138 48.475 545.85 54.7 Q 543.372 61.444 542.907 64.26 A 6.901 6.901 0 0 0 542.8 65.35 Q 542.8 67.539 543.668 68.556 A 2.458 2.458 0 0 0 543.8 68.7 A 3.27 3.27 0 0 0 546.156 69.7 A 3.89 3.89 0 0 0 546.2 69.7 A 4.019 4.019 0 0 0 547.834 69.296 Q 549.983 68.327 553.036 65.032 A 47.744 47.744 0 0 0 553.7 64.3 Z M 395.3 48.9 A 27.876 27.876 0 0 0 413.905 41.843 A 35.412 35.412 0 0 0 414.3 41.5 A 35.99 35.99 0 0 0 418.337 37.374 Q 420.246 35.05 421.319 32.735 A 14.004 14.004 0 0 0 422.7 26.8 A 8.716 8.716 0 0 0 422.555 25.157 Q 422.369 24.189 421.945 23.432 A 4.6 4.6 0 0 0 421.35 22.6 Q 420 21.1 417.1 21.1 A 7.605 7.605 0 0 0 415.263 21.357 Q 413.489 21.804 411.095 23.026 A 44.488 44.488 0 0 0 408.7 24.35 A 114.049 114.049 0 0 0 406.144 25.903 Q 402.6 28.125 400.8 29.7 A 425.715 425.715 0 0 1 399.294 35.512 Q 397.1 43.725 395.3 48.9 Z M 109.4 78.7 A 62.456 62.456 0 0 0 102.448 82.426 A 51.046 51.046 0 0 0 98.3 85.3 A 38.755 38.755 0 0 0 94.376 88.662 Q 90.318 92.685 89.504 96.564 A 9.41 9.41 0 0 0 89.3 98.5 A 6.721 6.721 0 0 0 89.514 100.238 A 5.01 5.01 0 0 0 90.7 102.4 A 4.564 4.564 0 0 0 94.005 103.897 A 5.746 5.746 0 0 0 94.2 103.9 A 8.709 8.709 0 0 0 100.638 100.785 Q 105.519 95.583 108.745 81.693 A 124.083 124.083 0 0 0 109.4 78.7 Z M 621.1 78.7 A 62.456 62.456 0 0 0 614.148 82.426 A 51.046 51.046 0 0 0 610 85.3 A 38.755 38.755 0 0 0 606.076 88.662 Q 602.018 92.685 601.204 96.564 A 9.41 9.41 0 0 0 601 98.5 A 6.721 6.721 0 0 0 601.214 100.238 A 5.01 5.01 0 0 0 602.4 102.4 A 4.564 4.564 0 0 0 605.705 103.897 A 5.746 5.746 0 0 0 605.9 103.9 A 8.709 8.709 0 0 0 612.338 100.785 Q 617.219 95.583 620.445 81.693 A 124.083 124.083 0 0 0 621.1 78.7 Z M 391.796 40.401 A 46.976 46.976 0 0 0 392.2 38.8 Q 387.248 43.392 382.985 50.74 A 75.891 75.891 0 0 0 382.05 52.4 Q 378.649 58.617 377.736 62.48 A 11.1 11.1 0 0 0 377.4 65 Q 377.4 67.1 379.1 67.1 A 2.265 2.265 0 0 0 380.568 66.303 Q 383.125 63.802 387.27 53.452 A 199.837 199.837 0 0 0 388.5 50.3 Q 390.725 44.366 391.796 40.401 Z M 435.2 62.4 Q 443.3 59.6 449.1 55.4 Q 453.33 52.337 454.475 49.646 A 4.952 4.952 0 0 0 454.9 47.7 A 3.105 3.105 0 0 0 454.079 45.59 A 4.147 4.147 0 0 0 453.9 45.4 A 3.56 3.56 0 0 0 452.95 44.708 A 3.03 3.03 0 0 0 451.6 44.4 Q 446.9 44.4 441.45 50.25 A 28.277 28.277 0 0 0 437.93 54.842 Q 435.971 58.075 435.35 61.437 A 17.341 17.341 0 0 0 435.2 62.4 Z M 552.956 34.614 A 10.231 10.231 0 0 0 555 34.8 A 3.541 3.541 0 0 0 557.234 34.061 A 4.445 4.445 0 0 0 558.2 33 Q 559.4 31.2 559.4 29.1 A 5.916 5.916 0 0 0 559.382 28.634 A 4.319 4.319 0 0 0 558 25.7 A 4.679 4.679 0 0 0 556.055 24.615 A 6.088 6.088 0 0 0 554.4 24.4 Q 552.2 24.4 550.8 26.1 A 5.916 5.916 0 0 0 549.678 28.232 A 7.378 7.378 0 0 0 549.4 30.3 A 6.292 6.292 0 0 0 549.45 31.112 Q 549.823 33.972 552.956 34.614 Z" vector-effect="non-scaling-stroke"/></g></svg>